<?xml version="1.0" encoding="UTF-8"?>
<svg xmlns="http://www.w3.org/2000/svg" viewBox="0 0 390.9 390.9">
  <defs>
    <style>
      .cls-1 {
        fill: #fff;
      }
    </style>
  </defs>
  <g id="Layer_2" data-name="Layer 2">
    <circle cx="195.45" cy="195.45" r="195.45"/>
  </g>
  <g id="Layer_1" data-name="Layer 1">
    <g>
      <g>
        <path class="cls-1" d="M273.84,76.23c10.37,2.38,18.36,10.54,18.36,21.83v132.53c-2.59-.59-5.14-1.11-7.68-1.12l-11.7-.02c-11.89-.02-21.95,9.28-22.02,21.33l-.11,21.05c-7.13,2.49-11.88,8.38-13.64,14.67-2.11,7.55-.06,14.69,4.77,20.36l14.38,16.87H123.16c-11.18-1.66-19.48-10.41-19.48-21.8l-.02-67.63h124.68c15.79-.01,28.98-12.69,28.98-28.53v-68.64c0-15.51-12.89-28.45-28.48-28.46l-125.16-.06v-10.64c0-11.16,7.97-19.35,18.35-21.74h151.8Z"/>
        <path class="cls-1" d="M306.71,290.48v3.71c-.29.4-.87,1.8-1.26,2.26l-21.14,24.7c-2.86,3.34-8.04,3.58-10.97.17l-20.72-24.14c-2.03-2.37-2.39-5.37-1.1-8.05,1.2-2.5,3.72-4.06,6.84-4.07h6.89s-.01-33.34-.01-33.34c0-4.44,3.14-7.77,7.64-7.75l12.12.04c3.94.01,7.2,3.21,7.2,7.22l.02,33.8,8.19.15c3.3.06,4.95,2.87,6.31,5.29Z"/>
      </g>
      <g>
        <path class="cls-1" d="M228.6,219.79l-154.33.04c-7.78,0-13.69-5.01-15.07-12.71v-71.32c1.32-6.96,6.69-12.63,14.08-12.63l155.05-.02c8.14,0,14.56,6.43,14.56,14.52v67.65c0,7.71-6.08,14.48-14.28,14.49ZM96.5,179.46l9.62-.14c9.94-.14,17.62-8.6,17.68-18.29s-7.37-17.88-17.29-18.42c-5.02-.28-9.85-.12-14.91-.12-2.64,0-4.81,2.16-4.81,4.87v48.23c0,2.94,2.43,4.95,5.03,4.86,2.38-.08,4.59-2.07,4.61-4.78l.07-16.2ZM152.72,200.32c9-.09,16.42-5.46,20.23-13.47,4.56-9.58,4.58-20.93.29-30.64-3.71-8.39-11.57-13.68-20.69-13.71l-14.09-.05c-2.63,0-4.95,2.07-4.94,4.86l.07,47.84c0,2.89,1.88,5.35,4.9,5.32l14.24-.15ZM208.84,166.2l-13.14-.07.04-13.99,14.75-.03c2.85,0,4.89-2.45,4.78-5.01-.1-2.39-2.07-4.64-4.79-4.64l-19.77.02c-2.55,0-4.65,2.24-4.65,4.83v48.31c0,2.9,2.34,4.82,4.86,4.82s4.77-1.99,4.77-4.78l.03-19.77,12.87-.05c2.85-.01,5.02-1.93,5.13-4.69.1-2.47-1.83-4.94-4.88-4.96Z"/>
        <path class="cls-1" d="M164.12,182.84c-2.61,5.45-7.46,7.99-13.06,7.93l-7.82-.08-.07-38.56,9.36.03c5.08.01,9.5,2.92,11.67,7.58,3.35,7.19,3.42,15.79-.08,23.09Z"/>
        <path class="cls-1" d="M106.03,169.62c-3.37.24-6.4.15-9.5.11l-.05-17.56c3.35-.03,6.38-.09,9.62.11,4.51.27,7.9,4.31,8.03,8.37.15,4.38-3.24,8.64-8.1,8.98Z"/>
      </g>
    </g>
  </g>
</svg>
